<svg width="194" height="87" viewBox="0 0 194 87" version="1.1" xmlns="http://www.w3.org/2000/svg" xmlns:xlink="http://www.w3.org/1999/xlink"><title>IGP</title><defs><path id="path-1" d="M0 .89h186.549V44H0z"/><path id="path-3" d="M.006.76h5.639v5.092H.006z"/></defs><g id="Symbols" stroke="none" stroke-width="1" fill="none" fill-rule="evenodd"><g id="nav-top" transform="translate(-623 -37)"><g id="Group"><g id="IGP-" transform="translate(623 37)"><path d="M62.972 18.439a13.996 13.996 0 0 1 1.296-4.929 14.584 14.584 0 0 1 2.918-4.154c1.224-1.228 2.656-2.215 4.279-2.972 1.646-.775 3.456-1.26 5.439-1.43a10.202 10.202 0 0 0-1.161 3.724c-.132 1.408 0 2.86.385 4.329a12.896 12.896 0 0 0 1.974 4.123c.92 1.28 2.112 2.303 3.56 3.126 1.435.824 3.132 1.29 5.101 1.387l.6.11c-.05.094-.12.168-.173.263a9.276 9.276 0 0 1-1.798 1.857c-.805.612-1.736 1.093-2.81 1.441-1.058.361-2.277.536-3.643.558l-1.19-.06c-1.386-.119-2.625-.52-3.7-1.26-1.001-.679-1.806-1.517-2.392-2.536-.047-.08-.074-.147-.102-.21-.6-1.117-.856-2.314-.786-3.604l.145-1.06.302-.946c-.111-.123-.212-.192-.284-.213l-.298-.039c-.267.635-.442 1.376-.523 2.207-.09 1.42.165 2.71.732 3.865.042.085.112.202.161.302.696 1.231 1.683 2.198 2.92 2.941 1.265.747 2.663 1.184 4.235 1.315l1.291.055c2.05-.019 3.769-.421 5.176-1.26 1.37-.79 2.481-1.916 3.35-3.353a.496.496 0 0 1 .077-.169l1.26.074.492-.027c-.018.042-.018.082-.034.122-.563 1.857-1.166 3.497-1.85 4.96-.688 1.474-1.521 2.714-2.48 3.736a9.581 9.581 0 0 1-3.361 2.326c-1.31.523-2.832.784-4.587.8l-1.535-.083a13.834 13.834 0 0 1-5.362-1.564 14.073 14.073 0 0 1-4.225-3.44 14.169 14.169 0 0 1-2.685-4.749 11.747 11.747 0 0 1-.502-1.986 13.799 13.799 0 0 1-.212-3.577zM77.884 4.9l.33-.021.71.03c1.642.177 3.102.544 4.31 1.137a9.993 9.993 0 0 1 3.052 2.182c.821.865 1.469 1.808 1.923 2.825a12.17 12.17 0 0 1 .929 3.048c.108.833.125 1.664.024 2.478a14.885 14.885 0 0 1-.473 2.214c-.212.64-.414 1.145-.596 1.472l-.86.066-1.664-.116c-1.47-.167-2.789-.595-3.961-1.286a10.492 10.492 0 0 1-2.93-2.661 11.971 11.971 0 0 1-1.761-3.568 11.192 11.192 0 0 1-.411-3.951 7.303 7.303 0 0 1 .431-2.04c.237-.611.556-1.199.947-1.809zm16.073 10.81c.11-1.065.275-2.2.536-3.37a15.897 15.897 0 0 1 1.06-3.274c.45-1.043 1.042-1.909 1.77-2.6a13.281 13.281 0 0 0-1.32 4.92c-.116 1.687.015 3.399.45 5.135a19.546 19.546 0 0 1-2.632 1.943l-.07.012.206-2.766zm4.913-6.288c.058-1.4.327-2.77.82-4.1.343.018.622.188.856.517.234.334.408.731.49 1.226.098.46.133.925.08 1.343-.08.833-.305 1.703-.646 2.565-.34.892-.765 1.765-1.273 2.586a19.45 19.45 0 0 1-.327-4.137zm4.173 19.16l1.882 2.85a54.4 54.4 0 0 1 1.886 3.38 18.547 18.547 0 0 1 1.432 3.416c.369 1.087.481 2.09.388 2.96-.075.871-.47 1.53-1.166 2.012l-.841.249a2.668 2.668 0 0 1-1.277-.445 6.116 6.116 0 0 1-1.208-1.166c-1.22-1.644-1.895-3.57-2.045-5.8-.145-2.248.17-4.717.95-7.455zM62.84 24.21a14.838 14.838 0 0 0 3.091 5.127c1.375 1.5 3.025 2.704 4.924 3.625 1.895.91 3.986 1.452 6.285 1.674l1.99.074c2.33-.016 4.344-.379 6.018-1.064 1.684-.69 3.078-1.661 4.182-2.903a14.395 14.395 0 0 0 2.698-4.3 25.892 25.892 0 0 0 1.432-4.427c.046-.28.117-.59.162-.857 1.211-.41 2.396-1.094 3.589-2.065.37.97.816 1.952 1.313 2.922.147.281.3.588.471.885.694 1.23 1.496 2.413 2.361 3.58l1.037 1.33c-.613 1.868-1 3.68-1.178 5.417-.206 1.728-.148 3.363.178 4.86.3 1.495.871 2.807 1.728 3.952.506.663 1.062 1.16 1.623 1.471.549.338 1.114.504 1.656.488.52 0 1.006-.124 1.456-.412 1.01-.66 1.65-1.587 1.909-2.745.264-1.172.208-2.536-.14-4.105-.383-1.573-.994-3.272-1.855-5.101a58.132 58.132 0 0 0-3.131-5.8l-.029-.059.857-1.775c.316-.631.754-1.288 1.294-1.986.074-.137.159-.242.249-.364.643-.822 1.463-1.637 2.455-2.428.971-.798 2.165-1.48 3.556-2.081 1.07-.421 2.081-.73 3.016-.93l2.506-.305h.305c.689.017 1.353.151 1.963.36.586.193 1.05.573 1.329 1.063.19.333.27.613.25.82l-.081.443c-.057.064-.057.12-.016.18l.155.11.437.095h.073l.578-.147.375-.368c.067-.155.102-.334.085-.531a1.512 1.512 0 0 0-.236-.693c-.272-.424-.774-.78-1.489-1.086-.706-.31-1.562-.52-2.548-.612l-1.075-.04c-1.276.018-2.47.176-3.57.481-1.104.306-2.046.64-2.82 1.023-.663.314-1.301.658-1.973 1.084-.648.426-1.33.948-2.042 1.588a27.652 27.652 0 0 0-2.223 2.338c-.037.029-.06.064-.094.107l-.93 1.289a23.3 23.3 0 0 0-.97 1.54l-1.306-2.162c-.142-.247-.267-.5-.427-.774a44.844 44.844 0 0 1-1.14-2.396 30.038 30.038 0 0 1-1.406-3.839c.488-.83.899-1.658 1.218-2.525.324-.853.558-1.667.745-2.46.175-.792.28-1.505.32-2.118.064-.959-.115-1.78-.524-2.487-.419-.68-.96-1.126-1.618-1.312.323-.814.788-1.606 1.35-2.363l1.795-2.129c-2.08 1.355-3.695 2.886-4.826 4.567-.927.266-1.774.842-2.563 1.725-.776.863-1.484 1.992-2.121 3.337-.64 1.347-1.226 2.877-1.752 4.58a73.26 73.26 0 0 0-1.403 5.376l-.123.043-1.278.25c.241-.587.468-1.268.65-2.063.188-.789.306-1.579.33-2.33.021-2.053-.394-3.917-1.3-5.596-.892-1.67-2.186-3.025-3.837-4.085-1.652-1.054-3.592-1.678-5.836-1.878l-.677-.045A10.208 10.208 0 0 1 81.5 1.613C82.78.924 84.204.577 85.807.557l.774.038c1.358.104 2.562.427 3.601.96 1.033.543 1.97 1.22 2.808 2.088a.547.547 0 0 0 .334-.166l.119-.261a11.767 11.767 0 0 0-2.998-2.176c-1.115-.535-2.392-.88-3.836-1L85.703 0c-1.698.02-3.208.387-4.56 1.134-1.322.737-2.563 1.76-3.705 3.059-2.1.1-4.047.485-5.855 1.187-1.811.718-3.397 1.685-4.762 2.907a14.606 14.606 0 0 0-3.328 4.283c-.828 1.638-1.31 3.413-1.447 5.363-.104 1.419-.03 2.756.216 4.083.14.75.319 1.467.578 2.194z" id="Fill-1" fill="#6A6967"/><g id="Group-5" transform="translate(0 43)"><mask id="mask-2" fill="#fff"><use xlink:href="#path-1"/></mask><path d="M135.973 21.451c-1.236.618-3.274.932-6.105.932h-.583c-.217 0-.356-.094-.368-.253V7.798c.98-.394 2.053-.583 3.202-.607 1.661.024 3.081.41 4.255 1.197l1.171.913c.329.33.63.723.93 1.207.774 1.113 1.176 2.515 1.195 4.194 0 1.534-.356 2.904-1.016 4.136-.543 1.14-1.439 2.006-2.68 2.613zm-23.41 6.887H97.355v-.206l7.868-16.401.085-.083 7.417 16.675-.162.015zM94.6 38.314c-.526-.594-.773-1.286-.69-2.068.203-.885.41-1.605.818-2.546l1.537-3.416.223-.285h17.059l1.569 3.573c.445 1.047.765 1.997.995 2.868-.023.449-.124.828-.314 1.144-.186.319-.431.46-.817.657l.09.073h15.87l.154-.21c-.355-.104-1.227-.452-1.429-.6-.217-.152-.412-.422-.548-.795-.136-.365-.2-.815-.2-1.336V23.492l5.72-.189 11.879 15.265c1.656 2.047 3.147 3.431 4.478 4.123 1.328.688 2.808 1.196 3.789 1.31h3.458l.192-.046c.09-.018.116-.068.067-.155-.135-.17-.504-.173-1.163-.173l-.954-.161a6.404 6.404 0 0 1-1.176-.517c-.447-.22-1.098-.69-1.942-1.347-1.75-1.697-2.565-2.445-4.096-4.334h16.451c.425-.096.753-.221.936-.349.193-.123.463-.438.761-.993.23-.415.427-1 .627-1.74v-.013c.084-.307.121.013.121.013l.419 5.244 8.029.745 1.627-.09 1.437-.278c1.45-.263 2.781-1 3.98-2.187 1.228-1.199 2.048-2.55 2.504-4.066a9.138 9.138 0 0 0 .487-3c0-1.15-.162-2.216-.487-3.231a7.85 7.85 0 0 0-1.548-2.7c-3.238-2.514-6.461-5.043-9.698-7.546l-1.829-1.76c-.743-.719-1.305-1.396-1.656-2.056-.509-.975-.738-2.043-.738-3.18 0-1.19.26-2.253.834-3.194.567-.936 1.367-1.662 2.448-2.214a7.35 7.35 0 0 1 3.408-.815l1.781.186c1.041.119 2.038.59 2.985 1.415.973.849 1.652 1.756 2.091 2.746.142 0 .27-.14.35-.407.082-.274.113-.787.113-1.543l-.04-1.963-.049-.287a36.454 36.454 0 0 0-3.632-.961c-1.2-.226-2.322-.353-3.369-.353-.927 0-1.835.106-2.736.334-.872.233-1.85.699-2.89 1.374-1.046.67-1.897 1.706-2.535 3.082-.63 1.368-.957 2.918-.957 4.605 0 2.387 1.15 4.67 3.457 6.812l8.513 6.7c.684.613 1.33 1.247 1.944 1.929a8.16 8.16 0 0 1 1.234 2.25c.292.809.448 1.63.448 2.459a6.14 6.14 0 0 1-.448 2.338 6.088 6.088 0 0 1-2.362 3.099c-1.104.768-2.345 1.206-3.717 1.327-2.146 0-3.946-.242-5.394-.725-1.413-.493-2.311-1.163-2.665-1.991l-1.03-2.829s-.083-.165-.278-.182c-.193-.016-.303.102-.303.102-.22.486-.545.926-.976 1.319-.434.397-.894.663-1.383.779l-2.776.308-8.292.068-.22-.111V22.022l6.996-.16c1.023 0 1.724.127 2.096.376.389.264.612.619.64 1.065l.068.02.135-.02.09-4.574-.149-.055a.23.23 0 0 0-.143.093c-.276.71-.82 1.185-1.64 1.423l-2.23.303-5.685.03-.178-.069V8.048l6.337-.084c.777-.029 1.409.045 1.863.212.469.152.821.479 1.092.923l.286.16.062-.025-.219-1.347c-.098-.406-.224-.714-.383-.904-.142-.183-.3-.285-.455-.305l-.556-.11-12.86.162c0 .157.13.303.35.403l.768.468c.276.197.49.575.608 1.089.115.516.165 1.196.165 1.994v23.533l-.21 1.14a1.93 1.93 0 0 1-.725.992c-.28.208-.814.505-1.273.708-.173-.213-.35-.418-.512-.636L137.82 22.257c1.85-1.059 3.143-2.316 3.899-3.758.724-1.44 1.114-2.838 1.114-4.145 0-1.899-.524-3.529-1.591-4.899l-1.294-1.314c-.433-.343-1.01-.68-1.723-1.02-.738-.32-1.56-.553-2.471-.714l-3.101-.214-9.15.302-.135.108.936.303c.593.317.995.716 1.229 1.19.252.472.363 1.023.363 1.648v25.273c0 1.02-.831 2.673-2.717 2.673-1.75 0-3.062-1.574-3.44-2.3L106.182 6.436l-.21-.182L92.16 34.677s-1.98 2.943-4.343 3.427c.088.112.187.21.303.21H94.6zm-8.248-5.36c-1.456 1.031-2.899 1.727-4.33 2.08-1.437.359-3.015.535-4.74.535l-3.384-.23a25.775 25.775 0 0 1-3.3-.645l-.184-6.426V10.33l.183-3.14a31.2 31.2 0 0 1 6.131-.602c2.418 0 4.606.285 6.56.871a10.063 10.063 0 0 1 3.084 1.924c.866.774 1.556 1.638 2.05 2.578.481.928.966 2.038 1.455 3.317.328 1.064.565 2.178.734 3.373.168 1.2.258 2.34.258 3.417 0 2.326-.397 4.449-1.184 6.416-.77 1.945-1.88 3.44-3.333 4.469zm-61.355-6.587H9.711v-.238L17.6 7.215l.087-.11 7.465 19.25-.155.012zm67.998 1.139c.726-1.936 1.083-4.014 1.083-6.23 0-2.992-.636-5.811-1.886-8.442-1.258-2.658-3.187-4.506-5.794-5.592-2.624-1.084-5.664-1.616-9.16-1.616h-11.21v-.018l-.077-.073h-6.748l-.329.123 1.281.612c.564.374.908.741.982 1.122l.32 2.256-.11 21.987-.146.119L40.333 8.193a2.303 2.303 0 0 1-.41-1.356l.038-.518.192-.428c.12-.171.165-.336.12-.48l-6.296.124-.31.073c.016.164.165.283.456.37.325.059.723.251 1.21.59.506.338.86.755 1.117 1.213l-.339 27.468c0 .464-.624 2.441-1.596 2.441-.582 0-1.723-1.713-1.958-2.396L18.583 1.108 18.358.89 4.367 33.914 3.134 35.85c-.25.379-.611.708-1.082 1.04-.424.302-1.045.653-1.846 1.072-.064.034-.141.067-.206.108.065.08.142.224.206.245H6.99c-.574-.682-.945-1.675-.857-2.585.199-1.018.508-2.086.926-3.171l1.536-3.946.219-.32h17.179l1.554 4.113c.467 1.211.784 2.306.996 3.308 0 .515-.109 1.148-.3 1.534-.18.362-.477.6-.839.973l.092.094H40.551l.27-.21-1.19-.414a2.75 2.75 0 0 1-.843-.643c-.216-.267-.332-.548-.332-.819-.167-1.233-.278-2.853-.302-4.853l.135-21.199 24.565 28.138h.31l.223-23.627-.084-3.279c0-.765.034-1.51.125-2.28.094-.757.241-1.44.464-2.04.214-.345.477-.572.762-.726.277-.17.588-.287.917-.345l.06-.033c.38.174.72.363 1.02.552.297.194.55.458.698.763.21.45.349.906.389 1.39l.088 4.06-.122 21.39c-.109.517-.387 1.004-.864 1.412a4.23 4.23 0 0 1-1.607.91l.062.187 1.593-.28 1.604-.048 7.477.328c2.966 0 5.554-.28 7.755-.867 2.222-.567 4.151-1.595 5.776-3.118 1.618-1.507 2.784-3.218 3.496-5.157z" id="Fill-3" fill="#6A6967" mask="url(#mask-2)"/></g><g id="Group-8" transform="translate(188 77)"><mask id="mask-4" fill="#fff"><use xlink:href="#path-3"/></mask><path d="M3.35 2.329c-.125-.065-.363-.1-.658-.1h-.46v1.016h.493c.224 0 .411-.022.521-.065.216-.073.31-.22.31-.442 0-.198-.072-.34-.206-.41zm-.58-.443c.383 0 .657.04.845.1.315.126.47.37.47.715 0 .255-.1.436-.3.552-.093.06-.259.1-.452.136.258.036.43.13.537.27.115.159.175.297.175.439V4.508c.005.074.005.124.027.15l.013.029h-.494l-.017-.03-.008-.025-.01-.093v-.22c0-.326-.094-.531-.296-.644-.107-.053-.31-.091-.604-.091h-.425v1.103h-.546V1.886H2.77zm-1.664-.144c-.466.436-.703.951-.703 1.562 0 .611.237 1.13.695 1.553.472.434 1.053.65 1.725.65.674 0 1.238-.216 1.715-.65.467-.423.702-.942.702-1.553 0-.61-.235-1.126-.702-1.562a2.523 2.523 0 0 0-1.715-.637c-.672 0-1.235.213-1.717.637zm3.708 3.364c-.556.5-1.212.746-1.99.746s-1.45-.246-1.995-.746C.281 4.61.006 4.004.006 3.299c0-.704.28-1.3.834-1.794C1.384 1.01 2.046.76 2.823.76c.78 0 1.435.25 1.991.746.554.495.831 1.09.831 1.794 0 .705-.277 1.312-.83 1.807z" id="Fill-6" fill="#6A6967" mask="url(#mask-4)"/></g></g></g></g></g></svg>